# xmcd
#
# Track frame offsets:
#	150
#	21827
#	36789
#	54811
#	69175
#	91220
#	112982
#	131949
#	155267
#	173949
#	198625
#	217282
#
# Disc length: 3151 seconds
#
# Revision: 3
# Processed by: cddbd v1.5.2PL0 Copyright (c) Steve Scherf et al.
# Submitted via: audiograbber 1.83.01
#
DISCID=a40c4d0c
DTITLE=Bonnie Raitt - Dig In Deep
DYEAR=2016
DGENRE=Rock
TTITLE0=Unintended Consequence Of Love
TTITLE1=Need You Tonight
TTITLE2=I Knew
TTITLE3=All Alone With Something To Say
TTITLE4=What You're Doin' To Me
TTITLE5=Shakin' Shakin' Shakes
TTITLE6=Undone
TTITLE7=If You Need Somebody
TTITLE8=Gypsy In Me
TTITLE9=The Comin' Round Is Going Through
TTITLE10=You've Changed My Mind
TTITLE11=The Ones We Couldn't Be
EXTD=
EXTT0=
EXTT1=
EXTT2=
EXTT3=
EXTT4=
EXTT5=
EXTT6=
EXTT7=
EXTT8=
EXTT9=
EXTT10=
EXTT11=
PLAYORDER=
